<svg width="900" height="200" xmlns="http://www.w3.org/2000/svg">
  <defs>
    <pattern id="dots" width="20" height="20" patternUnits="userSpaceOnUse">
      <circle cx="2" cy="2" r="0.5" fill="#333"/>
    </pattern>
  </defs>

  <!-- Background -->
  <rect width="900" height="200" fill="#000"/>
  <rect width="900" height="200" fill="url(#dots)"/>

  <!-- Top accent -->
  <rect x="0" y="0" width="900" height="2" fill="#fff"/>

  <!-- Left bar -->
  <rect x="50" y="40" width="3" height="120" fill="#fff"/>

  <!-- Name -->
  <text x="74" y="90" font-family="'SF Mono', 'Fira Code', monospace" font-size="44" font-weight="bold" fill="#fff" letter-spacing="3">SRUJAN GURRAM</text>

  <!-- Tagline -->
  <text x="74" y="122" font-family="'SF Mono', 'Fira Code', monospace" font-size="15" fill="#888" letter-spacing="1.5">CREATIVE DEVELOPER</text>

  <!-- Links row -->
  <text x="74" y="155" font-family="'SF Mono', 'Fira Code', monospace" font-size="13" fill="#555">srujangurram.me</text>
  <text x="250" y="155" font-family="'SF Mono', 'Fira Code', monospace" font-size="13" fill="#555">·</text>
  <text x="270" y="155" font-family="'SF Mono', 'Fira Code', monospace" font-size="13" fill="#555">@urban_lobster</text>
  <text x="430" y="155" font-family="'SF Mono', 'Fira Code', monospace" font-size="13" fill="#555">·</text>
  <text x="450" y="155" font-family="'SF Mono', 'Fira Code', monospace" font-size="13" fill="#555">in/srujangurram</text>

  <!-- Corner brackets -->
  <path d="M 20 20 L 20 35" stroke="#fff" stroke-width="1.5" fill="none"/>
  <path d="M 20 20 L 35 20" stroke="#fff" stroke-width="1.5" fill="none"/>
  <path d="M 880 20 L 880 35" stroke="#fff" stroke-width="1.5" fill="none"/>
  <path d="M 880 20 L 865 20" stroke="#fff" stroke-width="1.5" fill="none"/>
  <path d="M 20 180 L 20 165" stroke="#fff" stroke-width="1.5" fill="none"/>
  <path d="M 20 180 L 35 180" stroke="#fff" stroke-width="1.5" fill="none"/>
  <path d="M 880 180 L 880 165" stroke="#fff" stroke-width="1.5" fill="none"/>
  <path d="M 880 180 L 865 180" stroke="#fff" stroke-width="1.5" fill="none"/>

  <!-- Bottom accent -->
  <rect x="0" y="198" width="900" height="2" fill="#fff"/>
</svg>
